<svg width="32" height="32" viewBox="0 0 32 32" fill="none" xmlns="http://www.w3.org/2000/svg">
<path d="M16 0C7.16472 0 0 7.16472 0 16C0 24.8353 7.16472 32 16 32V28.0008C13.6269 28.0005 11.3072 27.2965 9.33423 25.9779C7.36123 24.6593 5.82352 22.7853 4.91553 20.5928C4.00754 18.4003 3.77006 15.9878 4.2331 13.6603C4.69615 11.3329 5.83892 9.19496 7.51694 7.51694C9.19496 5.83892 11.3329 4.69615 13.6603 4.2331C15.9878 3.77006 18.4003 4.00754 20.5928 4.91553C22.7853 5.82352 24.6593 7.36123 25.9779 9.33423C27.2965 11.3072 28.0005 13.6269 28.0008 16H32C32 7.16472 24.8353 0 16 0Z" fill="black" fill-opacity="0.9"/>
</svg>
