<svg width="462" height="34" viewBox="0 0 462 34" fill="none" xmlns="http://www.w3.org/2000/svg">
<path d="M0.84729 18.0771C9.86377 18.0771 18.7628 19.6101 27.8458 19.6101C43.9708 19.6101 60.0968 19.6627 76.2216 19.6101C97.7559 19.54 117.88 16.0109 138.821 11.1784C152.492 8.02341 166.261 3.71212 180.213 1.98021C205.119 -1.11156 230.477 1.47945 254.565 7.94202C270.976 12.345 287.008 15.011 304.005 15.011C321.24 15.011 338.638 13.7325 355.831 14.2871C373.274 14.8498 388.941 24.7503 405.612 29.0213C413.717 31.0978 421.697 32.641 430.055 32.641C435.86 32.641 440.049 28.7292 445.045 26.5088C448.326 25.0504 451.299 22.9684 454.626 21.5264C456.674 20.6393 462.99 18.8436 460.759 18.8436" stroke="black" stroke-linecap="round"/>
</svg>
