<svg width="467" height="15" viewBox="0 0 467 15" fill="none" xmlns="http://www.w3.org/2000/svg">
<path d="M0.745972 10.2221C50.2574 10.2221 99.7689 10.2221 149.28 10.2221C170.583 10.2221 191.853 10.7992 213.072 8.68906C229.546 7.05069 245.655 6.3895 262.214 6.3895C292.034 6.3895 323.999 2.93884 353.047 11.3719C366.82 15.3706 381.624 14.8706 395.588 12.1384C404.546 10.3857 413.407 8.30441 422.246 6.00624C425.925 5.04971 430.175 2.9777 433.957 2.59949C443.212 1.674 452.699 2.56163 461.935 1.40713C463.228 1.24553 465.034 0.686558 466.364 1.06645C466.525 1.11269 460.38 1.79039 459.124 1.79039" stroke="black" stroke-linecap="round"/>
</svg>
